<svg width="40" height="37" viewBox="0 0 40 37" fill="none" xmlns="http://www.w3.org/2000/svg">
<path fill-rule="evenodd" clip-rule="evenodd" d="M12.5094 11.0518C12.4325 11.079 12.31 11.1608 12.2373 11.2336C11.9934 11.4775 12 11.4078 12 13.7374C12 16.0672 11.9934 15.9972 12.2374 16.2413C12.5507 16.5547 13.0397 16.5449 13.3521 16.2188C13.5482 16.0141 13.5516 15.9898 13.5516 14.7837C13.5516 14.1821 13.5624 13.6899 13.5755 13.6899C13.5886 13.6899 14.3688 14.4605 15.3092 15.4025C16.3151 16.41 17.0712 17.1426 17.1457 17.182C17.3199 17.2741 17.6354 17.2744 17.8107 17.1827C17.9596 17.1047 18.1129 16.9494 18.1939 16.7941C18.2772 16.6347 18.2724 16.311 18.1844 16.1437C18.1442 16.0672 17.431 15.3319 16.4044 14.3084C15.4624 13.3692 14.6916 12.5892 14.6916 12.5751C14.6916 12.5611 15.1836 12.5496 15.7851 12.5496C16.9908 12.5496 17.0151 12.5462 17.2197 12.35C17.5676 12.0164 17.5424 11.4518 17.1669 11.1653C17.0934 11.1092 16.9802 11.0486 16.9153 11.0306C16.8392 11.0094 16.0622 10.9986 14.7233 11.0001C12.9296 11.0021 12.6303 11.0091 12.5094 11.0518ZM22.6741 11.0518C22.4667 11.1251 22.2743 11.3335 22.2101 11.5541C22.1228 11.8545 22.1976 12.1337 22.4231 12.35C22.6278 12.5462 22.6521 12.5496 23.8578 12.5496C24.4592 12.5496 24.9513 12.5603 24.9513 12.5734C24.9513 12.5866 24.1803 13.3669 23.238 14.3076C21.9426 15.6008 21.5088 16.0528 21.4595 16.1606C21.266 16.5842 21.504 17.0908 21.9587 17.223C22.1704 17.2846 22.3398 17.2644 22.5471 17.153C22.6432 17.1013 23.262 16.5046 24.383 15.3825C25.3131 14.4515 26.0779 13.6899 26.0826 13.6899C26.0874 13.6899 26.0912 14.1821 26.0912 14.7837C26.0912 15.9814 26.0921 15.9878 26.2822 16.2044C26.4434 16.388 26.6064 16.4594 26.867 16.4605C27.0541 16.4613 27.1124 16.4476 27.2404 16.3723C27.4135 16.2705 27.5647 16.0799 27.6121 15.9036C27.6332 15.8254 27.6415 15.0399 27.6358 13.6674L27.627 11.5518L27.5478 11.4107C27.4554 11.2459 27.2476 11.0771 27.08 11.0306C27.0038 11.0094 26.2268 10.9986 24.8879 11.0001C23.0942 11.0021 22.7949 11.0091 22.6741 11.0518ZM17.3109 20.4073C17.245 20.4232 17.1524 20.4568 17.1051 20.482C17.0577 20.5071 16.2496 21.2984 15.3092 22.2402C14.3688 23.1821 13.5886 23.9528 13.5755 23.9528C13.5624 23.9528 13.5516 23.4606 13.5516 22.859C13.5516 21.6529 13.5482 21.6285 13.3521 21.4239C13.0422 21.1005 12.5493 21.0893 12.24 21.3987C11.9926 21.6462 11.9998 21.5701 12.0014 23.9188C12.0025 25.571 12.0115 26.0202 12.0452 26.1147C12.1077 26.2899 12.2361 26.4424 12.4048 26.5416L12.5542 26.6294L14.6692 26.6381C16.0412 26.6438 16.8265 26.6355 16.9046 26.6145C17.0808 26.567 17.2714 26.4158 17.3731 26.2427C17.4484 26.1146 17.4622 26.0563 17.4614 25.8692C17.4603 25.6085 17.3889 25.4454 17.2053 25.2841C16.9888 25.094 16.9823 25.0931 15.7851 25.0931C15.1836 25.0931 14.6916 25.0896 14.6917 25.0852C14.6917 25.0808 15.4596 24.3075 16.3982 23.3668C17.4758 22.2866 18.1278 21.6096 18.1676 21.5296C18.2656 21.3324 18.2824 21.1615 18.2236 20.9593C18.1093 20.5658 17.6943 20.3148 17.3109 20.4073ZM21.969 20.4169C21.4869 20.5491 21.2484 21.1001 21.4827 21.5407C21.5072 21.5869 22.2977 22.3943 23.2393 23.335C24.1809 24.2757 24.9513 25.0561 24.9513 25.0692C24.9513 25.0824 24.4592 25.0931 23.8578 25.0931C22.6605 25.0931 22.6541 25.094 22.4376 25.2841C22.0746 25.6029 22.0936 26.1856 22.4765 26.4778C22.5503 26.5341 22.6665 26.5952 22.7347 26.6135C22.8174 26.6358 23.563 26.644 24.9737 26.6381C27.0719 26.6294 27.0897 26.6288 27.2153 26.561C27.3635 26.481 27.4854 26.3569 27.568 26.2017C27.6236 26.0973 27.6275 25.9692 27.6358 23.9752C27.6416 22.5641 27.6334 21.8182 27.6112 21.7355C27.5624 21.5543 27.3957 21.3546 27.2159 21.2621C27.0934 21.199 27.0131 21.1814 26.852 21.1823C26.6074 21.1837 26.4394 21.2592 26.2822 21.4383C26.0921 21.6549 26.0912 21.6613 26.0912 22.859C26.0912 23.4606 26.0805 23.9528 26.0674 23.9528C26.0542 23.9528 25.2741 23.1815 24.3337 22.2389C23.1403 21.0427 22.5856 20.5079 22.4972 20.4683C22.3167 20.3872 22.1399 20.3701 21.969 20.4169Z" fill="black"/>
</svg>
